<svg version="1.1" xmlns="http://www.w3.org/2000/svg" xmlns:xlink="http://www.w3.org/1999/xlink" viewBox="0 0 172 172">
    <g fill="none" fill-rule="nonzero" stroke="none" stroke-width="1" stroke-linecap="butt" stroke-linejoin="miter"
        stroke-miterlimit="10" stroke-dasharray="" stroke-dashoffset="0" font-family="none" font-weight="none"
        font-size="none" text-anchor="none" style="mix-blend-mode: normal; fill: none">
        <path d="M0,172v-172h172v172z" style="fill: none" fill="none"></path>
        <g>
            <path
                d="M143.33333,78.83333h-50.16667v-50.16667c0,-3.956 -3.21067,-7.16667 -7.16667,-7.16667c-3.956,0 -7.16667,3.21067 -7.16667,7.16667v50.16667h-50.16667c-3.956,0 -7.16667,3.21067 -7.16667,7.16667c0,3.956 3.21067,7.16667 7.16667,7.16667h50.16667v50.16667c0,3.956 3.21067,7.16667 7.16667,7.16667c3.956,0 7.16667,-3.21067 7.16667,-7.16667v-50.16667h50.16667c3.956,0 7.16667,-3.21067 7.16667,-7.16667c0,-3.956 -3.21067,-7.16667 -7.16667,-7.16667z">
            </path>
        </g>
    </g>
</svg>